<?xml version="1.0" encoding="iso-8859-1"?>
<!-- Uploaded to: SVG Repo, www.svgrepo.com, Generator: SVG Repo Mixer Tools -->
<svg fill="#000000" height="800px" width="800px" version="1.1" id="Layer_1" xmlns="http://www.w3.org/2000/svg" xmlns:xlink="http://www.w3.org/1999/xlink" 
	 viewBox="0 0 512 512" xml:space="preserve">
<g>
	<g>
		<path d="M446.374,227.668c0-12.967-6.914-29.66-16.083-38.831l-78.985-78.984l78.989-78.99c9.305-9.303,7.334-17.494,6.054-20.583
			C435.07,7.189,430.674,0.002,417.513,0L293.298,0.001c-12.967,0.001-29.661,6.916-38.828,16.084l-78.992,78.991l-78.99-78.989
			c-4.763-4.763-9.768-7.176-14.876-7.176c-7.955,0-15.984,6.171-15.987,19.962l0.002,124.213c0,12.967,6.914,29.66,16.083,38.831
			l78.985,78.984l-78.989,78.99c-9.305,9.303-7.334,17.494-6.054,20.583c1.28,3.09,5.677,10.278,18.835,10.279h0.001l124.215-0.001
			c8.409-0.001,18.375-2.919,26.849-7.464v117.814h-59.537c-5.771,0-10.449,4.679-10.449,10.449c0,5.77,4.678,10.449,10.449,10.449
			h104.99c5.77,0,10.449-4.679,10.449-10.449c0-5.77-4.679-10.449-10.449-10.449h-24.555V355.749l70.074-70.073l78.99,78.989
			c4.763,4.763,9.768,7.176,14.876,7.176c7.955,0,15.984-6.171,15.987-19.962L446.374,227.668z M269.247,30.862
			c5.213-5.214,16.678-9.962,24.052-9.963l117.407-0.001l-81.424,81.425c-0.048,0.047-0.1,0.087-0.148,0.134l-73.138,73.138
			l-17.888-17.888l64.376-64.377c4.08-4.08,4.08-10.697,0-14.777c-4.081-4.079-10.696-4.079-14.778,0l-64.376,64.377l-33.076-33.076
			L269.247,30.862z M96.486,177.138c-5.213-5.215-9.962-16.68-9.962-24.054L86.522,35.677l154.697,154.695l-65.749,65.75
			L96.486,177.138z M242.753,349.889c-5.213,5.214-16.678,9.962-24.052,9.963l-117.407,0.001l154.71-154.696l17.941,17.94
			l-64.263,64.265c-4.08,4.08-4.08,10.697,0,14.778c2.041,2.04,4.715,3.06,7.388,3.06s5.348-1.021,7.388-3.06l64.263-64.265
			l33.023,33.023L242.753,349.889z M270.781,190.38l65.749-65.75l78.985,78.984c5.213,5.215,9.962,16.68,9.962,24.054l0.002,117.408
			L270.781,190.38z"/>
	</g>
</g>
<g>
	<g>
		<path d="M326.584,54.499c-4.068-4.094-10.685-4.113-14.777-0.044l-0.173,0.172c-4.093,4.069-4.113,10.685-0.044,14.777
			c2.042,2.055,4.726,3.082,7.41,3.082c2.664,0,5.329-1.013,7.367-3.039l0.173-0.172C330.633,65.208,330.653,58.591,326.584,54.499z
			"/>
	</g>
</g>
<g>
	<g>
		<path d="M325.986,491.102h-0.599c-5.771,0-10.449,4.679-10.449,10.449c0,5.77,4.678,10.449,10.449,10.449h0.599
			c5.771,0,10.449-4.679,10.449-10.449C336.435,495.781,331.757,491.102,325.986,491.102z"/>
	</g>
</g>
<g>
	<g>
		<path d="M200.555,311.266c-4.081-4.08-10.696-4.08-14.777,0l-0.173,0.173c-4.08,4.08-4.08,10.697,0,14.778
			c2.041,2.04,4.715,3.06,7.388,3.06s5.348-1.021,7.388-3.06l0.173-0.173C204.635,321.963,204.635,315.347,200.555,311.266z"/>
	</g>
</g>
</svg>