<?xml version="1.0" encoding="iso-8859-1"?>
<!-- Uploaded to: SVG Repo, www.svgrepo.com, Generator: SVG Repo Mixer Tools -->
<svg fill="#000000" height="800px" width="800px" version="1.1" id="Layer_1" xmlns="http://www.w3.org/2000/svg" xmlns:xlink="http://www.w3.org/1999/xlink" 
	 viewBox="0 0 512 512" xml:space="preserve">
<g>
	<g>
		<path d="M187.733,204.8c-9.411,0-17.067,7.656-17.067,17.067c0,9.411,7.656,17.067,17.067,17.067s17.067-7.656,17.067-17.067
			C204.8,212.456,197.144,204.8,187.733,204.8z"/>
	</g>
</g>
<g>
	<g>
		<path d="M324.267,341.333c-9.411,0-17.067,7.656-17.067,17.067c0,9.411,7.656,17.067,17.067,17.067
			c9.411,0,17.067-7.656,17.067-17.067C341.333,348.989,333.677,341.333,324.267,341.333z"/>
	</g>
</g>
<g>
	<g>
		<path d="M424.407,145.86l14.326-14.326c6.666-6.666,6.666-17.467,0-24.133c-6.666-6.666-17.467-6.666-24.133,0l-14.326,14.326
			c-34.771-29.83-78.841-49.112-127.207-52.81V34.133h17.067c9.422,0,17.067-7.645,17.067-17.067S299.555,0,290.133,0h-68.267
			C212.445,0,204.8,7.645,204.8,17.067s7.645,17.067,17.067,17.067h17.067v34.783c-48.366,3.698-92.436,22.98-127.207,52.81
			l-14.327-14.326c-6.666-6.666-17.467-6.666-24.133,0c-6.666,6.666-6.666,17.467,0,24.133l14.326,14.326
			c-33.304,38.82-53.458,89.236-53.458,144.274C34.133,412.467,133.666,512,256,512s221.867-99.533,221.867-221.867
			C477.867,235.096,457.712,184.68,424.407,145.86z M136.533,221.867c0-28.233,22.967-51.2,51.2-51.2s51.2,22.967,51.2,51.2
			c0,28.233-22.967,51.2-51.2,51.2S136.533,250.099,136.533,221.867z M195.656,374.622c-3.334,3.334-7.701,5.001-12.066,5.001
			c-4.366,0-8.734-1.667-12.066-5.001c-6.666-6.666-6.666-17.467,0-24.133l144.811-144.822c6.666-6.667,17.466-6.667,24.132,0
			c6.666,6.666,6.666,17.467,0,24.133L195.656,374.622z M324.267,409.6c-28.233,0-51.2-22.967-51.2-51.2
			c0-28.233,22.967-51.2,51.2-51.2c28.233,0,51.2,22.967,51.2,51.2C375.467,386.633,352.5,409.6,324.267,409.6z"/>
	</g>
</g>
</svg>